PathFileType        4      (X/Y/Z)      C:\Users\pc\Desktop\IMUTRC\Sujet_05\Sujet_05_velo_80.trc         
DataRate	CameraRate	NumFrames	NumMarkers	Units	OrigDataRate	OrigDataStartFrame	OrigNumFrames
60.0	60.0	4	64	mm	60.0	248	990
Frame#	Time	pHipOrigin			pRightASI			pLeftASI			pRightCSI			pLeftCSI			pRightIschialTub			pLeftIschialTub			pSacrum			pL5SpinalProcess			pL3SpinalProcess			pT12SpinalProcess			pIJ			pT4SpinalProcess			pT8SpinalProcess			pPX			pC7SpinalProcess			pTopOfHead			pRightAuricularis			pLeftAuricularis			pBackOfHead			pRightAcromion			pLeftAcromion			pRightArmLatEpicondyle			pRightArmMedEpicondyle			pLeftArmLatEpicondyle			pLeftArmMedEpicondyle			pRightUlnarStyloid			pRightRadialStyloid			pRightOlecranon			pLeftUlnarStyloid			pLeftRadialStyloid			pLeftOlecranon			pRightTopOfHand			pRightPinky			pRightBallHand			pLeftTopOfHand			pLeftPinky			pLeftBallHand			pRightGreaterTrochanter			pRightKneeLatEpicondyle			pRightKneeMedEpicondyle			pRightPatella			pLeftGreaterTrochanter			pLeftKneeLatEpicondyle			pLeftKneeMedEpicondyle			pLeftPatella			pRightTibialTub			pRightLatMalleolus			pRightMedMalleolus			pLeftTibialTub			pLeftLatMalleolus			pLeftMedMalleolus			pRightHeelFoot			pRightFirstMetatarsal			pRightFifthMetatarsal			pRightPivotFoot			pRightHeelCenter			pRightToe			pLeftHeelFoot			pLeftFirstMetatarsal			pLeftFifthMetatarsal			pLeftPivotFoot			pLeftHeelCenter			pLeftToe			
		X1	Y1	Z1	X2	Y2	Z2	X3	Y3	Z3	X4	Y4	Z4	X5	Y5	Z5	X6	Y6	Z6	X7	Y7	Z7	X8	Y8	Z8	X9	Y9	Z9	X10	Y10	Z10	X11	Y11	Z11	X12	Y12	Z12	X13	Y13	Z13	X14	Y14	Z14	X15	Y15	Z15	X16	Y16	Z16	X17	Y17	Z17	X18	Y18	Z18	X19	Y19	Z19	X20	Y20	Z20	X21	Y21	Z21	X22	Y22	Z22	X23	Y23	Z23	X24	Y24	Z24	X25	Y25	Z25	X26	Y26	Z26	X27	Y27	Z27	X28	Y28	Z28	X29	Y29	Z29	X30	Y30	Z30	X31	Y31	Z31	X32	Y32	Z32	X33	Y33	Z33	X34	Y34	Z34	X35	Y35	Z35	X36	Y36	Z36	X37	Y37	Z37	X38	Y38	Z38	X39	Y39	Z39	X40	Y40	Z40	X41	Y41	Z41	X42	Y42	Z42	X43	Y43	Z43	X44	Y44	Z44	X45	Y45	Z45	X46	Y46	Z46	X47	Y47	Z47	X48	Y48	Z48	X49	Y49	Z49	X50	Y50	Z50	X51	Y51	Z51	X52	Y52	Z52	X53	Y53	Z53	X54	Y54	Z54	X55	Y55	Z55	X56	Y56	Z56	X57	Y57	Z57	X58	Y58	Z58	X59	Y59	Z59	X60	Y60	Z60	X61	Y61	Z61	X62	Y62	Z62	X63	Y63	Z63	X64	Y64	Z64	
248	4.117	0.0	1249.99512	7.654012613289058E-14	66.25293000000002	1344.65045	121.31879000000009	53.211009999999995	1343.72302	-128.21651999999992	21.910420000000006	1405.74457	102.36454000000009	11.071139999999993	1405.04901	-105.20477999999991	-47.70443	1195.74076	54.71808000000007	-53.15305	1195.39297	-49.09556999999993	-62.83305	1268.02195	3.1880200000000816	-29.6776	1369.22721	0.2898200000000857	26.08383	1475.8811	-0.17388999999991123	84.74347	1569.20325	0.28982000000009095	345.34992	1598.30121	7.651260000000076	232.08813	1704.20156	4.173410000000089	157.14059	1650.70073	1.7389200000000915	245.9995	1521.09307	4.463230000000078	282.05315	1738.05258	6.83976000000009	562.94703	1776.8885	-14.780839999999925	470.7262	1742.45785	68.28167000000009	452.87326	1751.32635	-76.74442999999991	445.97554	1801.92898	1.1013200000000831	275.67711	1665.88731	201.19328000000007	284.0819	1667.6842	-190.7597499999999	351.08836	1412.58433	183.22442000000007	335.61195	1408.81667	128.10059000000007	379.72261	1428.40853	-172.09531999999993	356.24716	1418.6126	-120.68118999999994	452.35159	1196.3204	178.00765000000007	494.60739	1221.99848	184.49963000000005	319.7298	1403.36805	154.24238000000005	483.53625	1213.18794	-173.89219999999995	524.45889	1240.31513	-182.81866999999994	345.17602	1415.5405	-143.51902999999993	503.01218	1138.06651	343.84285	476.92835	1133.66124	261.70777	481.39158	1175.97501	202.99017000000006	600.7396	1163.62866	-316.19399	543.35517	1154.99202	-252.37554999999998	521.50272	1194.75537	-195.80261999999993	25.44623000000001	1223.33165	147.98227000000009	310.45555	1002.60448	115.98610000000004	316.54177	1011.53095	46.371250000000046	335.78585	1039.52759	84.85940000000004	3.999519999999991	1215.10076	-147.40261999999993	281.70537	983.24448	-138.18633999999997	299.21052	998.31514	-71.58561999999996	313.12189	1021.50077	-115.29052999999996	337.00309	960.34868	78.13556000000004	81.67137	683.10654	79.58467000000005	84.8594	686.29456	20.11353000000004	337.98848	963.01502	-114.65292999999996	262.22944	594.53744	-137.72263	274.34393	593.20427	-79.29483999999997	-8.288859999999996	667.45624	52.45748000000004	84.91736	537.67469	5.738440000000027	87.69963	534.54463	84.04790000000003	99.17652	518.08284	42.66155000000002	16.751620000000003	637.37289	50.37078000000004	146.01149	452.29362	38.43018000000002	213.88741	518.25673	-108.62465999999999	372.82488	488.75302	-68.86131	373.52045	488.40524	-147.2867	395.02512	484.40572	-106.82778	252.83926	513.7935	-108.21890999999998	474.31997	469.27709	-106.01628	
249	4.133	0.0	1249.99512	7.654012613289058E-14	65.20958000000002	1345.6938	121.08694000000008	54.37029999999999	1342.6217	-128.56429999999992	21.040960000000005	1406.672	101.20526000000008	12.056529999999993	1404.06362	-106.47998999999992	-48.2261	1196.26243	54.77604000000007	-52.68934	1194.98722	-49.03759999999993	-62.83305	1268.07991	2.4924500000000815	-29.61964	1369.16925	-0.8694599999999144	26.08383	1475.8811	-1.1592799999999113	84.74347	1569.20325	-0.1738899999999091	345.23399	1598.41714	9.506110000000076	231.9722	1704.25952	5.50659000000009	157.02466	1650.75869	2.1446700000000916	245.9995	1521.15103	5.042870000000078	281.87926	1738.1685	8.810540000000088	562.88906	1777.23629	-10.665389999999926	470.08859	1742.45785	71.70155000000008	453.22105	1751.79006	-73.44046999999992	445.80165	1802.16084	4.521200000000083	273.93818	1665.19174	202.5264500000001	285.41507	1668.3218	-189.3686099999999	350.27686	1412.35248	182.93460000000005	335.2062	1408.99056	127.69484000000007	379.78057	1428.40853	-172.09531999999993	356.07327	1418.32278	-120.85507999999994	451.77195	1196.26243	177.31208000000007	494.02775	1221.94052	183.86202000000006	319.15016	1403.36805	153.95256000000006	482.89865	1212.78219	-174.64573999999993	523.87925	1239.85141	-183.39830999999995	345.0601	1415.42457	-143.63495999999995	502.54847	1137.77669	343.08932	476.34871	1133.48735	260.95423	480.75398	1175.91705	202.29460000000006	599.87014	1163.62866	-317.23734	542.54368	1154.76016	-253.30297999999996	520.80715	1194.40758	-196.55614999999995	25.79401000000001	1225.47632	148.15616000000009	322.22225	1020.10963	118.07281000000005	328.07662	1029.09406	48.45796000000004	345.63974	1058.19202	86.94610000000006	2.028739999999991	1212.84016	-146.9389099999999	263.21483	962.60928	-135.80980999999997	282.16908	977.39011	-69.61484999999996	297.2977	998.89478	-113.72549999999995	347.84237	977.85383	80.45413000000005	89.72838	703.16211	79.81652000000004	93.49604	706.2342	20.345390000000034	321.12094	942.66964	-112.39232999999996	250.92645	573.20667	-137.25891	262.75112	571.81553	-78.77316999999998	0.05796000000000323	687.80163	52.80527000000004	92.68454	557.6723	6.1441900000000285	95.58275	554.65817	84.45365000000002	106.88574	538.02248	43.06730000000003	24.924550000000004	657.66031	50.71856000000004	153.54682	472.11733	38.83593000000002	201.59903	497.56356	-108.04501999999998	359.84093	466.43685	-67.06443	361.11614	465.62536	-145.48981	382.27303	461.56787	-104.79903	240.43495	492.63661	-107.40741999999999	461.39398	445.51183	-103.4079	
250	4.15	0.0	1249.99512	7.654012613289058E-14	64.34012000000001	1346.62123	120.79712000000009	55.41364999999999	1341.52039	-128.91208999999992	20.345390000000005	1407.4835	100.10395000000008	12.983949999999993	1403.19416	-107.63926999999991	-48.68982	1196.72615	54.83401000000007	-52.39952	1194.63944	-49.03759999999993	-62.83305	1268.13788	1.8548500000000816	-29.56167	1369.16925	-1.9707799999999143	26.14179	1475.8811	-2.0867099999999117	84.80143	1569.20325	-0.6375999999999091	345.17602	1598.59103	11.071140000000076	231.85627	1704.31749	6.66587000000009	157.02466	1650.75869	2.4344900000000913	246.05747	1521.26696	5.448620000000078	281.70537	1738.28443	10.491500000000089	562.71517	1777.81593	-7.0136499999999256	469.50895	1742.63174	74.65772000000008	453.51087	1752.3697	-70.54226999999992	445.51183	1802.50862	7.535330000000083	272.48908	1664.6121	203.62777000000008	286.63232	1668.95941	-188.2093299999999	349.46537	1412.12062	182.76071000000005	334.68453	1409.10649	127.40502000000006	379.83854	1428.40853	-172.15327999999994	355.84141	1418.14889	-121.08693999999994	451.01841	1196.08854	176.61651000000006	493.27422	1221.76662	183.10849000000005	318.45459	1403.25212	153.72071000000005	482.14512	1212.43441	-175.34130999999994	523.24164	1239.3877	-184.03591999999995	344.94417	1415.42457	-143.86681999999993	502.02679	1137.4289	342.21986	475.76907	1133.19753	260.14274	480.05841	1175.68519	201.48310000000006	598.88475	1163.5707	-318.2807	541.67421	1154.58627	-254.28836999999996	520.05362	1194.00183	-197.42561999999995	26.31569000000001	1227.79489	148.3880100000001	333.00357	1037.84664	119.75376000000004	338.45219	1046.71514	50.080950000000044	354.45028	1076.91442	88.45317000000004	0.11592999999999103	1211.04327	-146.5911299999999	244.60837	944.58245	-133.83902999999998	264.77986	958.78365	-67.87591999999995	281.06777	978.78125	-112.27639999999995	358.04405	995.59083	82.07712000000002	99.46634	721.42079	80.04838000000004	103.46586	724.55085	20.577240000000035	304.0795	924.29503	-110.71136999999996	237.30489	554.25242	-137.20095	249.01364	552.80332	-78.65723999999999	10.085750000000004	705.24881	53.32694000000004	103.87161	575.93098	6.665870000000029	107.00167	573.09074	84.97532000000002	118.42059	556.51302	43.58898000000003	35.30012	675.33936	51.24024000000004	165.66131	491.18751	39.29964000000002	186.70226	479.47877	-107.81316999999999	344.30656	446.09147	-65.96310999999999	345.81363	444.75829	-144.38849	366.79662	440.64284	-103.63975	225.48022	473.91422	-106.94370999999998	445.62775	423.31159	-101.7849	
251	4.167	0.0	1249.99512	7.654012613289058E-14	63.586580000000005	1347.49069	120.50730000000009	56.341069999999995	1340.535	-129.2019099999999	19.823710000000005	1408.17907	99.06059000000009	13.853409999999993	1402.38266	-108.68262999999992	-49.09557	1197.18986	54.89197000000007	-52.1097	1194.29166	-48.97963999999993	-62.83305	1268.19584	1.3331700000000815	-29.44575	1369.16925	-2.8981999999999144	26.25772	1475.82313	-2.8981999999999117	84.80143	1569.20325	-1.159279999999909	345.11806	1598.88085	12.288380000000076	231.68238	1704.49138	7.535330000000091	156.90873	1650.81665	2.6663500000000915	246.11543	1521.38289	5.738440000000078	281.41555	1738.45832	11.824670000000088	562.42535	1778.68539	-3.941559999999926	468.87135	1743.03749	77.15017000000009	453.68476	1753.1812	-68.10777999999992	445.10608	1803.0303	10.027780000000083	271.15591	1664.26432	204.4972300000001	287.7916	1669.71294	-187.28189999999992	348.5959	1411.94673	182.70274000000006	333.87303	1409.04853	127.34706000000007	379.8965	1428.58242	-172.26920999999993	355.72548	1418.14889	-121.31878999999995	450.09099	1195.85668	175.92095000000006	492.40476	1221.4768	182.41292000000007	317.58513	1403.13619	153.72071000000005	481.33362	1212.14459	-176.03686999999994	522.48811	1238.98195	-184.61555999999993	344.94417	1415.59847	-144.04070999999993	501.38919	1136.84926	341.3504	475.01554	1132.79178	259.27328	479.24691	1175.39537	200.72957000000005	597.8414	1163.51274	-319.26609	540.63086	1154.41238	-255.27375999999998	519.18416	1193.71201	-198.17914999999994	27.01126000000001	1230.28734	148.5619100000001	342.97339	1056.10532	121.02897000000006	347.84237	1064.56807	51.24024000000004	362.39135	1095.92663	89.26466000000005	-1.5650300000000088	1209.94195	-146.4172399999999	226.34969	929.16401	-132.56381999999994	247.44861	942.43778	-66.65867999999996	264.83783	961.21814	-111.17507999999995	367.66608	1013.90748	82.94658000000003	110.8273	738.05648	80.33820000000004	114.76885	741.41839	20.867060000000038	286.74824	908.41287	-110.01579999999996	221.30681	538.25433	-137.66465999999997	233.24741	536.57338	-79.23687999999999	21.910420000000002	719.56594	54.19640000000004	118.82634	592.56667	7.41940000000003	122.47808	590.07421	85.67089000000003	134.07089	573.67038	44.28455000000003	47.87832	690.29408	52.05173000000004	182.99256	509.67805	39.93724000000002	169.37101	464.46608	-107.81316999999999	326.27974	428.18057	-65.84717999999998	327.72884	426.32572	-144.27257	348.65387	422.09434	-103.46586	208.03304	458.14799	-106.94370999999998	427.13722	403.19806	-101.55305	
